<svg width="30" height="20" viewBox="0 0 30 20" fill="none" xmlns="http://www.w3.org/2000/svg">
<g style="mix-blend-mode:screen">
<path d="M1.66667 20C1.19445 20 0.798339 19.84 0.478339 19.52C0.158339 19.2 -0.00110534 18.8045 5.76702e-06 18.3333C5.76702e-06 17.8611 0.160006 17.465 0.480006 17.145C0.800006 16.825 1.19556 16.6656 1.66667 16.6667H28.3333C28.8056 16.6667 29.2017 16.8267 29.5217 17.1467C29.8417 17.4667 30.0011 17.8622 30 18.3333C30 18.8056 29.84 19.2017 29.52 19.5217C29.2 19.8417 28.8045 20.0011 28.3333 20H1.66667ZM1.66667 11.6667C1.19445 11.6667 0.798339 11.5067 0.478339 11.1867C0.158339 10.8667 -0.00110534 10.4711 5.76702e-06 10C5.76702e-06 9.52778 0.160006 9.13167 0.480006 8.81167C0.800006 8.49167 1.19556 8.33223 1.66667 8.33334H28.3333C28.8056 8.33334 29.2017 8.49334 29.5217 8.81334C29.8417 9.13334 30.0011 9.5289 30 10C30 10.4722 29.84 10.8683 29.52 11.1883C29.2 11.5083 28.8045 11.6678 28.3333 11.6667H1.66667ZM1.66667 3.33334C1.19445 3.33334 0.798339 3.17334 0.478339 2.85334C0.158339 2.53334 -0.00110534 2.13778 5.76702e-06 1.66667C5.76702e-06 1.19445 0.160006 0.798339 0.480006 0.478339C0.800006 0.158339 1.19556 -0.00110534 1.66667 5.767e-06H28.3333C28.8056 5.767e-06 29.2017 0.160006 29.5217 0.480006C29.8417 0.800006 30.0011 1.19556 30 1.66667C30 2.13889 29.84 2.53501 29.52 2.85501C29.2 3.17501 28.8045 3.33445 28.3333 3.33334H1.66667Z" fill="url(#paint0_linear_1_79)"/>
</g>
<defs>
<linearGradient id="paint0_linear_1_79" x1="33.2974" y1="-5.91836" x2="0.625213" y2="-3.15086" gradientUnits="userSpaceOnUse">
<stop stop-color="white"/>
<stop offset="0.523958" stop-color="#D795FF"/>
<stop offset="1" stop-color="#7BC2FE"/>
</linearGradient>
</defs>
</svg>
