<svg viewBox="0 0 18 18" fill="none" xmlns="http://www.w3.org/2000/svg">
<path d="M17.2667 18L10.9667 11.7C10.4667 12.1 9.89175 12.4167 9.24175 12.65C8.59175 12.8833 7.90008 13 7.16675 13C5.35008 13 3.81275 12.3707 2.55475 11.112C1.29675 9.85333 0.667415 8.316 0.666748 6.5C0.666748 4.68333 1.29608 3.146 2.55475 1.888C3.81341 0.63 5.35075 0.000666667 7.16675 0C8.98341 0 10.5207 0.629333 11.7787 1.888C13.0367 3.14667 13.6661 4.684 13.6667 6.5C13.6667 7.23333 13.5501 7.925 13.3167 8.575C13.0834 9.225 12.7667 9.8 12.3667 10.3L18.6667 16.6L17.2667 18ZM7.16675 11C8.41675 11 9.47941 10.5623 10.3547 9.687C11.2301 8.81167 11.6674 7.74933 11.6667 6.5C11.6667 5.25 11.2291 4.18733 10.3537 3.312C9.47841 2.43667 8.41608 1.99933 7.16675 2C5.91675 2 4.85408 2.43767 3.97875 3.313C3.10341 4.18833 2.66608 5.25067 2.66675 6.5C2.66675 7.75 3.10441 8.81267 3.97975 9.688C4.85508 10.5633 5.91741 11.0007 7.16675 11Z" fill="white"/>
</svg>
