<svg width="1600" height="824" viewBox="0 0 1600 824" fill="none" xmlns="http://www.w3.org/2000/svg">
<path d="M-97.5924 76.4702C-16.7016 117.032 54.9653 173.824 112.94 243.304C198.384 346.979 193.737 410.494 275.805 469.72C355.569 527.238 465.045 543.087 553.866 521.359C675.061 491.687 680.543 410.931 835.9 283.026C927.263 207.871 1098.59 66.7779 1300.66 80.4424C1402.75 87.3541 1504.24 133.194 1598.58 175.776C1714.22 227.971 1730.82 254.783 1793.23 267.137C1867.35 281.834 1981.95 271.387 2146.76 140.026" stroke="#B195FF" stroke-opacity="0.5" stroke-miterlimit="10"/>
<path d="M-99.8566 91.3273C-26.9663 126.962 38.7441 175.705 93.9921 235.122C99.2753 240.881 104.558 246.8 109.881 252.878C196.2 353.295 192.783 413.951 273.819 471.707C309.142 496.981 349.137 514.979 391.478 524.657C421.807 531.561 452.912 534.446 483.993 533.237C507.236 532.32 530.302 528.789 552.754 522.711C577.773 516.28 601.557 505.757 623.143 491.568C662.866 465.352 690.673 429.959 733.454 385.55C765.68 352.127 800.741 321.559 838.244 294.189C858.106 279.491 881.304 261.775 908.117 243.622C979.857 194.923 1071.66 142.013 1181.81 123.741C1219.19 117.363 1257.16 115.231 1295.02 117.385C1300.82 117.703 1306.58 118.18 1312.26 118.736C1368.51 124.178 1422.09 138.597 1476.83 157.743C1517.79 171.884 1556.52 189.521 1594.93 206.085C1611.02 213.155 1625.4 219.59 1638.39 225.628C1716.84 262.212 1737.22 281.835 1790.8 290.415C1831.52 296.93 1884.19 295.778 1951.05 272.58C2005.86 253.593 2070.77 219.392 2146.76 162.827" stroke="#B195FF" stroke-opacity="0.5" stroke-miterlimit="10"/>
<path d="M-101.962 106.263C-29.8267 140.551 35.4791 187.658 90.7744 245.291C96.0708 250.852 101.367 256.545 106.664 262.371C194.054 359.571 191.949 417.288 271.872 473.693C307.279 499.297 347.402 517.643 389.929 527.676C420.437 534.625 451.746 537.404 483 535.938C506.278 534.751 529.326 530.75 551.642 524.021C576.537 516.826 600.191 505.883 621.793 491.568C663.105 464.557 692.42 430.317 734.725 388.847C767.103 357.371 802.569 329.238 840.587 304.874C860.449 291.845 883.131 275.877 909.666 260.067C980.373 217.922 1066.57 173.711 1175.61 159.292C1213.28 154.102 1251.35 152.4 1289.34 154.207C1295.22 154.525 1301.02 154.922 1306.74 155.439C1363.94 160.444 1416.18 172.797 1472.03 189.838C1514.09 202.708 1552.46 220.027 1591.19 236.353C1607.28 243.106 1621.82 249.263 1635.13 255.022C1713.82 289.223 1734.91 307.257 1788.3 313.613C1828.98 318.459 1881.25 315.797 1948.46 292.322C2003.36 273.096 2069.1 239.531 2146.76 185.707" stroke="#B195FF" stroke-opacity="0.5" stroke-miterlimit="10"/>
<path d="M-104.465 120.96C-32.9192 153.95 32.1202 199.519 87.5567 255.499C92.8399 260.901 98.1628 266.383 103.446 271.984C191.989 365.927 190.996 420.783 269.846 475.68C307.186 501.658 343.969 520.367 388.26 530.735C418.973 537.741 450.514 540.415 481.967 538.679C505.289 537.213 528.322 532.726 550.49 525.332C575.273 517.378 598.83 506.015 620.482 491.568C663.303 463.763 694.089 430.754 735.957 392.263C768.515 362.717 804.417 337.081 842.931 315.877C862.991 304.516 884.998 290.296 911.215 276.83C981.247 240.842 1061.49 205.608 1169.42 194.963C1207.38 190.975 1245.59 189.714 1283.74 191.189C1289.66 191.467 1295.65 191.824 1301.22 192.301C1357.34 196.898 1412.89 206.888 1467.1 222.133C1510.28 233.692 1548.33 250.852 1587.54 266.741C1603.63 273.255 1618.29 279.094 1631.95 284.576C1710.84 316.354 1732.69 332.719 1785.84 336.97C1826.51 340.227 1878.51 335.937 1945.96 312.183C2000.98 292.957 2067.43 259.63 2146.76 208.349" stroke="#B195FF" stroke-opacity="0.5" stroke-miterlimit="10"/>
<path d="M-106.768 135.776C-35.9144 167.483 28.7821 211.456 84.3393 265.668C89.6225 270.911 94.9851 276.155 100.229 281.557C189.725 372.402 190.122 424.041 267.86 477.705C306.034 503.962 341.586 523.187 386.672 533.793C417.56 540.868 449.312 543.424 480.935 541.38C504.363 539.681 527.44 534.721 549.497 526.643C574.114 517.995 597.548 506.291 619.25 491.807C663.581 463.167 696.035 431.508 737.308 395.639C766.425 370.376 800.864 348.29 845.394 326.84C865.613 317.069 887.143 304.556 912.923 293.474C982.677 263.483 1056.56 237.465 1163.18 230.593C1201.39 227.775 1239.72 226.94 1278.02 228.091C1284.02 228.329 1289.94 228.647 1295.62 229.044C1351.84 232.731 1407.65 241.182 1462.45 254.308C1506.82 264.556 1544.32 281.597 1583.93 296.929C1599.81 303.206 1614.87 308.846 1628.85 313.97C1707.9 343.524 1730.5 358.022 1783.49 360.128C1824.17 361.756 1875.81 355.917 1943.54 331.925C1998.56 312.421 2065.81 279.69 2146.76 231.03" stroke="#B195FF" stroke-opacity="0.5" stroke-miterlimit="10"/>
<path d="M-109.033 150.593C-38.8862 181.039 25.4511 223.414 81.1219 275.837C86.405 280.882 91.7676 285.887 97.0111 291.051C187.58 378.439 189.208 427.496 265.795 479.652C304.803 506.226 339.123 525.968 384.964 536.812C416.058 543.948 448.046 546.385 479.862 544.041C503.296 542.097 526.309 536.675 548.146 527.954C572.617 518.575 595.95 506.462 617.701 491.846C663.582 462.452 697.743 432.263 738.34 399.016C768.331 374.547 803.526 355.321 847.539 337.764C867.997 329.581 889.05 318.856 914.274 309.958C984.306 285.728 1051.4 269.164 1156.9 265.986C1193.57 264.874 1234.12 263.483 1272.3 264.794C1278.38 264.993 1284.22 265.271 1290.01 265.589C1346.26 268.362 1402.22 275.266 1457.45 286.244C1502.93 295.182 1540.15 312.103 1580.19 327.118C1596.28 333.156 1611.26 338.36 1625.6 343.285C1704.8 370.813 1728.28 384.318 1780.91 383.484C1821.59 382.849 1872.91 376.056 1940.88 351.706C1995.93 331.845 2064.02 299.79 2146.6 253.791" stroke="#B195FF" stroke-opacity="0.5" stroke-miterlimit="10"/>
<path d="M-111.337 165.372C-41.885 194.587 22.104 235.378 77.9041 286.008C83.1873 290.854 88.5897 295.66 93.7934 300.586C185.474 384.797 188.334 430.835 263.769 481.64C303.492 508.452 336.66 528.75 383.335 539.873C414.575 547.025 446.728 549.343 478.67 546.745C502.181 544.529 525.197 538.631 546.875 529.267C571.146 519.117 594.362 506.61 616.192 491.928C663.581 461.699 699.61 432.821 739.333 402.354C770.238 378.521 806.227 362.394 849.644 348.69C870.42 342.096 893.022 338.282 915.585 326.803C988.794 323.744 1046.39 295.025 1150.43 301.778C1187.17 304.201 1228.36 300.824 1266.38 301.778C1272.54 301.976 1278.49 302.175 1284.21 302.453C1345.47 305.353 1392.34 308.729 1452.4 318.342C1499 325.929 1535.82 342.771 1576.3 357.309C1592.19 363.109 1607.48 368.034 1622.18 372.682C1701.43 397.786 1725.74 408.432 1778.29 406.446C1819.01 404.817 1870.01 395.84 1938.22 371.292C1993.35 351.43 2062.15 319.653 2146.44 276.316" stroke="#B195FF" stroke-opacity="0.5" stroke-miterlimit="10"/>
<path d="M-113.641 180.188C-44.8917 208.171 18.7457 247.351 74.6864 296.137C80.0093 300.824 85.4117 305.392 90.5757 310.08C183.567 391.034 187.619 434.132 261.901 483.626C302.618 510.717 334.396 531.531 381.825 542.931C413.336 550.173 445.798 552.359 477.995 549.406C504.172 547.221 525.663 539.356 546.08 530.538C570.171 519.637 593.304 506.735 615.238 491.968C664.137 460.945 702.192 433.576 741.002 405.691C772.78 382.771 809.722 369.544 852.226 359.574C873.438 354.608 895.524 353.456 917.412 343.446C990.621 349.087 1041.47 333.317 1144.47 337.329C1181.41 338.799 1223.08 337.925 1260.98 338.759C1267.17 338.759 1273.21 339.037 1278.89 339.236C1341.18 341.579 1386.7 342.771 1447.83 350.755C1495.5 357.031 1531.97 373.754 1572.88 387.856C1588.77 393.417 1604.18 398.025 1619.24 402.394C1698.69 425.354 1723.75 434.172 1776.11 429.922C1816.82 426.704 1867.47 416.178 1935.95 391.351C1991.13 371.49 2060.72 340.03 2146.68 299.355" stroke="#B195FF" stroke-opacity="0.5" stroke-miterlimit="10"/>
<path d="M-115.905 194.964C-47.8903 221.758 15.3747 259.311 71.4689 306.186C76.7918 310.714 82.2339 315.084 87.5965 319.493C181.542 397.189 186.904 437.309 259.915 485.452C301.466 512.821 332.013 534.191 380.237 545.79C411.898 553.113 444.545 555.206 476.883 551.987C503.418 549.564 524.55 541.063 544.849 531.729C569.914 520.209 590.53 506.704 613.769 492.006C664.217 460.229 709.859 441.122 742.154 409.027C778.739 393.416 812.94 363.624 854.61 370.496C876.298 374.071 897.908 368.589 919.041 360.089C992.29 374.389 1036.66 365.372 1138.35 372.919C1175.45 375.66 1217.8 375.024 1255.38 375.62C1261.69 375.62 1267.73 375.62 1273.45 375.978C1336.69 377.765 1380.9 376.653 1443.07 382.929C1491.97 387.815 1527.96 404.459 1569.27 418.123C1585.16 423.446 1600.73 427.776 1616.1 431.827C1695.55 452.681 1721.61 459.394 1773.76 453.158C1814.52 448.272 1864.85 436.197 1933.53 411.092C1988.78 390.993 2058.97 360.089 2146.76 322.075" stroke="#B195FF" stroke-opacity="0.5" stroke-miterlimit="10"/>
<path d="M-118.209 209.739C-50.889 235.4 12.0195 271.397 68.2516 316.433C73.5745 320.763 79.0165 324.735 84.4189 329.065C179.754 403.504 185.991 440.645 257.929 487.477C300.354 515.084 329.629 537.011 378.608 548.888C410.47 556.244 443.337 558.217 475.85 554.727C502.743 552.065 523.518 542.81 543.737 533.078C568.326 521.161 588.703 507.02 612.418 492.045C664.376 459.393 712.401 442.551 743.504 412.323C781.36 398.42 817.707 370.535 857.073 381.379C878.603 387.298 900.331 383.762 920.63 376.731C993.919 399.691 1031.85 397.506 1132.19 408.509C1169.46 412.481 1212.12 412.164 1249.78 412.481H1267.93C1332.2 413.673 1375.18 410.376 1438.3 414.865C1488.35 418.4 1523.9 435.004 1565.65 448.192C1581.54 453.276 1597.23 457.288 1612.96 461.022C1692.41 479.85 1719.42 484.498 1771.38 476.196C1812.14 469.642 1862.15 456.017 1931.07 430.674C1986.36 410.376 2057.5 379.989 2146.8 344.596" stroke="#B195FF" stroke-opacity="0.5" stroke-miterlimit="10"/>
<path d="M-120.513 224.477C-53.9688 249.047 8.52017 283.444 64.875 326.524C70.2376 330.496 75.6797 334.468 81.082 338.44C177.45 409.583 185.037 443.744 255.864 489.385C299.162 517.19 327.365 539.713 376.94 551.828C408.979 559.279 442.063 561.147 474.738 557.35C502.028 554.45 522.406 544.678 542.505 534.311C566.617 521.758 586.797 507.26 610.988 492.046C664.495 458.6 714.864 443.943 744.537 415.621C783.704 403.386 820.011 399.017 859.218 392.224C881.701 396.514 902.436 398.858 922.06 393.336C995.349 425.114 1026.77 429.643 1125.84 443.982C1163.26 449.424 1206.48 449.702 1243.98 449.265C1250.41 449.265 1256.57 449.265 1262.25 449.265C1327.55 448.431 1369.1 444.3 1433.34 447.081C1484.58 449.265 1519.65 465.79 1561.88 478.541C1577.77 483.347 1593.66 487.121 1609.55 490.457C1688.99 507.26 1716.8 509.762 1768.68 499.395C1809.47 491.212 1859.13 476.038 1928.36 450.417C1983.7 429.96 2055.48 400.05 2146.56 367.279" stroke="#B195FF" stroke-opacity="0.5" stroke-miterlimit="10"/>
<path d="M-122.777 239.253C-56.8893 262.718 5.289 295.519 61.8561 336.652C67.179 340.624 72.6607 344.318 78.0631 348.052C175.702 415.858 184.402 447.08 253.957 491.33C298.129 519.453 324.863 542.492 375.39 554.886C407.705 562.424 441.101 564.159 474.023 560.01C501.829 556.872 521.889 546.504 541.552 535.62C565.386 522.552 585.248 507.577 609.836 491.926C664.813 457.685 717.605 445.213 745.927 418.797C786.365 408.271 823.229 406.881 861.72 402.908C884.482 409.264 904.899 413.792 923.807 409.741C997.096 450.059 1022.04 461.658 1119.8 479.334C1157.38 486.127 1201.11 486.603 1238.49 485.928C1245.01 485.928 1251.17 485.928 1256.89 485.928C1323.14 484.458 1363.42 477.983 1428.69 479.135C1481.04 479.97 1515.72 496.454 1558.38 508.729C1574.27 513.336 1590.16 516.673 1606.65 519.89C1686.09 534.747 1715.01 535.064 1766.53 522.631C1807.33 512.78 1856.66 496.097 1926.14 470.198C1981.51 449.582 2054.25 420.148 2146.84 390.038" stroke="#B195FF" stroke-opacity="0.5" stroke-miterlimit="10"/>
<path d="M-125.081 253.991C-59.901 276.41 1.91029 307.629 58.6384 346.782C64.001 350.754 69.4828 354.012 74.8851 357.547C173.835 421.976 183.647 450.258 251.971 493.278C297.017 521.6 322.479 545.195 373.801 557.866C406.234 565.452 439.776 567.081 472.791 562.672C500.598 559.256 520.777 548.293 540.321 536.853C563.519 523.268 583.221 507.816 608.406 492.126C664.932 457.051 720.068 446.803 747.079 422.254C788.828 413.396 826.089 414.747 863.984 414.032C886.984 422.413 907.124 429.166 925.277 426.584C998.606 475.601 1017.04 494.112 1113.52 515.125C1151.26 523.308 1195.51 523.387 1232.69 523.069C1239.29 523.069 1245.48 523.069 1251.21 523.069C1318.5 520.964 1357.46 513.973 1423.76 511.709C1477.23 509.882 1511.51 527.598 1554.61 539.514C1570.66 543.841 1586.93 547.289 1603.35 549.842C1682.8 562.791 1712.67 560.885 1763.99 546.386C1804.83 534.867 1853.8 516.674 1923.52 490.497C1979.13 469.722 2052.46 440.725 2146.72 413.277" stroke="#B195FF" stroke-opacity="0.5" stroke-miterlimit="10"/>
<path d="M-127.385 260.227C-62.9048 281.691 -1.46245 311.383 55.4202 348.569C60.7828 352.144 66.3043 355.402 71.7464 358.699C171.968 419.752 182.971 445.094 249.984 486.842C295.904 515.442 320.095 539.593 372.172 552.503C404.801 560.165 438.572 561.687 471.758 556.992C500.12 553.298 519.862 541.778 539.287 529.782C561.89 515.403 581.274 499.514 607.055 483.625C665.09 447.875 722.649 439.652 748.31 417.05C791.33 409.861 829.027 414.071 866.327 416.375C889.565 426.822 909.387 435.76 926.826 434.687C1000.19 492.364 1012.15 518.104 1107.29 541.937C1145.22 551.51 1189.99 551.709 1227.09 551.113L1245.68 550.755C1314.01 549.564 1351.62 537.25 1418.95 534.867C1473.65 532.88 1507.42 549.365 1550.95 560.686C1567.18 564.79 1583.62 567.959 1600.21 570.18C1679.46 581.222 1710.48 577.012 1761.57 560.487C1802.44 547.3 1851.1 527.597 1921.06 501.142C1976.67 480.209 2050.83 451.688 2146.76 426.902" stroke="#B195FF" stroke-opacity="0.5" stroke-miterlimit="10"/>
<path d="M-129.768 262.731C-66.0098 283.104 -4.94905 311.113 52.084 346.148C57.4863 349.564 63.0079 352.583 68.4499 355.641C170.141 413.397 182.098 435.96 247.998 476.317C294.832 505.116 317.712 529.863 370.584 543.051C403.423 550.724 437.422 552.072 470.765 547.023C499.445 543.051 518.95 531.134 538.096 518.423C560.301 503.845 579.567 487.4 605.625 471.233C665.21 434.569 725.112 428.651 749.463 407.955C793.794 402.434 833.318 403.308 868.632 414.867C893.936 423.169 911.652 438.7 928.217 438.7C1001.59 505.037 1007.03 538.006 1100.89 565.057C1138.95 576.1 1184.31 576.378 1221.21 575.544C1227.97 575.544 1234.24 575.226 1239.92 575.067C1309.28 573.24 1345.55 558.662 1413.95 554.53C1469.76 551.154 1503.13 567.639 1547.1 578.364C1563.48 582.295 1580.09 585.187 1596.84 587.023C1676.04 596.239 1708.06 589.685 1758.95 571.134C1799.82 556.239 1848.16 535.027 1918.35 508.334C1973.97 487.241 2048.96 459.197 2146.56 436.834" stroke="#B195FF" stroke-opacity="0.5" stroke-miterlimit="10"/>
<path d="M-131.953 265.153C-68.8905 284.561 -8.19957 310.969 48.9858 343.883C54.4278 347.1 59.9891 349.881 65.3914 352.741C168.354 406.922 181.383 426.465 246.012 465.79C293.68 494.788 315.289 520.13 369.154 533.556C402.163 541.458 436.402 542.808 469.931 537.529C499.009 533.278 518.235 520.647 537.143 507.578C558.911 492.523 577.938 475.522 604.672 459.117C665.726 421.659 728.012 417.965 751.091 399.136C796.654 395.164 836.973 399.573 871.293 413.635C897.074 424.201 914.274 441.441 930.242 443.387C1003.61 518.422 1002.54 558.581 1095.17 588.691C1133.39 601.203 1179.19 601.521 1216.05 600.608L1234.88 599.972C1305.23 597.549 1340.18 580.667 1409.66 574.868C1466.66 570.061 1499.55 586.784 1544 596.913C1560.54 600.706 1577.32 603.36 1594.21 604.858C1673.34 612.286 1706.39 603.348 1757.08 582.772C1797.95 566.208 1845.94 543.487 1916.41 516.516C1991 486.839 2068.09 463.868 2146.76 447.876" stroke="#B195FF" stroke-opacity="0.5" stroke-miterlimit="10"/>
<path d="M-134.257 265.946C-71.8777 284.483 -11.556 309.346 45.7681 340.147C51.2499 343.166 56.8111 345.748 62.2135 348.37C166.566 399.095 180.628 415.898 244.026 453.872C292.647 483.068 312.906 509.007 367.366 522.711C400.585 530.647 435.062 531.809 468.74 526.127C498.135 521.598 517.122 508.411 535.832 494.786C557.123 479.255 575.912 461.737 603.043 445.093C665.647 406.841 730.157 405.371 752.045 388.41C798.918 386.265 839.872 393.971 873.359 410.456C899.576 423.365 916.3 442.591 931.514 445.967C1004.92 529.662 997.295 577.051 1088.66 610.219C1127.03 624.201 1173.39 624.519 1210.09 623.287C1216.96 623.049 1223.36 622.731 1229.04 622.493C1300.54 619.434 1334.03 600.328 1404.5 592.82C1462.61 586.624 1495.1 603.188 1539.99 612.999C1556.69 616.566 1573.63 618.903 1590.68 619.99C1669.77 625.671 1703.81 614.27 1754.3 591.708C1795.17 573.436 1842.84 549.245 1913.55 521.956C1988.8 492.119 2066.96 470.219 2146.76 456.613" stroke="#B195FF" stroke-opacity="0.5" stroke-miterlimit="10"/>
<path d="M-136.561 263.684C-74.853 281.334 -14.8972 304.616 42.5504 333.237C48.0322 336.058 53.6331 338.441 59.0355 340.864C164.818 388.014 180.072 401.838 242.04 438.779C291.574 468.174 310.522 494.748 365.777 508.651C399.18 516.678 433.878 517.733 467.707 511.749C497.459 506.903 516.209 493.199 534.68 479.018C555.534 463.129 574.085 444.976 601.693 428.094C665.806 389.047 732.779 389.722 753.276 374.707C801.42 374.231 842.931 385.432 875.703 404.34C902.238 419.673 918.603 440.726 933.102 445.572C1006.51 537.966 992.29 592.544 1082.46 628.731C1120.91 644.223 1167.87 644.62 1204.45 643.11C1211.36 642.832 1217.8 642.475 1223.48 642.197C1295.89 638.542 1328.07 617.092 1399.57 607.916C1458.84 600.29 1490.93 616.894 1536.18 626.228C1553.06 629.585 1570.18 631.643 1587.38 632.385C1666.43 636.358 1701.43 622.455 1751.72 597.906C1792.59 578.045 1839.98 552.226 1910.93 524.698C1986.72 494.559 2065.86 473.609 2146.64 462.295" stroke="#B195FF" stroke-opacity="0.5" stroke-miterlimit="10"/>
<path d="M-138.825 261.418C-77.7933 278.253 -18.215 299.972 39.3329 326.364C44.8544 328.985 50.4553 331.091 55.8577 333.315C163.11 377.01 178.999 387.933 240.054 423.683C290.462 453.237 308.139 480.446 364.149 494.627C397.746 502.772 432.689 503.706 466.674 497.368C496.784 492.164 515.295 478.023 533.568 463.247C553.985 446.762 572.258 428.212 600.342 411.091C666.004 371.369 735.401 374.07 754.507 360.962C798.359 361.483 841.17 374.386 878.007 398.182C904.82 415.977 920.907 438.817 934.652 445.173C1008.1 546.226 987.245 608.034 1076.26 647.24C1114.8 664.281 1162.34 664.599 1198.77 662.93C1205.8 662.612 1212.24 662.215 1217.96 661.858C1291.33 657.488 1322.31 634.052 1394.84 623.009C1455.18 613.992 1486.96 630.596 1532.64 639.454C1548.53 642.513 1565.3 642.99 1584.28 644.737C1663.01 652.007 1699.28 630.636 1749.37 604.062C1790.25 582.374 1837.32 555.204 1908.5 527.398C1984.92 496.96 2065.09 476.919 2146.84 467.815" stroke="#B195FF" stroke-opacity="0.5" stroke-miterlimit="10"/>
<path d="M-141.129 259.155C-80.7436 275.196 -21.5243 295.343 36.1155 319.454C41.6767 321.837 47.2777 323.783 52.7198 325.77C161.323 365.492 178.443 374.032 238.068 408.59C289.43 438.342 305.597 466.148 362.56 480.607C396.41 488.857 431.646 489.67 465.84 482.99C496.268 477.429 514.54 462.811 532.614 447.478C552.476 430.517 570.59 411.45 599.151 394.092C666.362 353.416 738.181 358.342 755.898 347.259C800.921 349.621 844.231 365.283 880.35 392.265C907.322 412.483 923.211 437.151 936.201 444.976C1009.69 554.689 982.161 623.726 1070.03 665.99C1108.68 684.541 1156.78 684.819 1193.17 682.952C1200.24 682.594 1206.75 682.118 1212.44 681.76C1286.84 676.715 1316.47 650.856 1390.08 638.304C1451.61 627.857 1482.79 644.58 1529.11 652.882C1546.4 655.288 1563.81 656.773 1581.26 657.331C1660.11 662.455 1697.18 639.019 1747.11 610.459C1787.94 587.062 1834.74 558.423 1906 530.339C1982.99 499.665 2064.12 480.628 2146.72 473.854" stroke="#B195FF" stroke-opacity="0.5" stroke-miterlimit="10"/>
<path d="M-143.433 256.89C-83.667 272.177 -24.7878 290.742 32.9375 312.501C38.4988 314.686 44.0997 316.473 49.5418 318.181C159.575 354.408 177.728 360.048 236.24 393.653C288.357 423.366 303.213 451.846 360.931 466.544C394.923 474.912 430.35 475.618 464.648 468.609C495.433 462.691 513.507 447.596 531.303 431.707C550.847 414.309 568.603 394.686 597.681 377.089C666.362 335.619 740.684 342.849 756.97 333.395C803.293 337.505 847.21 355.848 882.694 385.907C909.745 408.629 925.476 435.044 937.75 444.339C1011.24 562.751 977.036 639.256 1063.83 684.301C1102.56 704.4 1151.22 704.639 1187.45 702.573C1194.6 702.176 1201.15 701.659 1206.83 701.222C1282.31 695.502 1310.55 667.419 1385.23 653.198C1447.91 641.282 1478.66 658.124 1525.33 665.909C1542.79 668.184 1560.37 669.391 1577.97 669.524C1656.94 672.503 1694.79 647.002 1744.53 616.416C1785.4 591.351 1831.92 561.202 1903.42 532.999C1981.03 502.051 2063.17 483.978 2146.6 479.493" stroke="#B195FF" stroke-opacity="0.5" stroke-miterlimit="10"/>
<path d="M-145.658 254.627C-77.6119 271.906 -16.5575 289.503 29.7596 305.63C35.4003 307.617 41.0012 309.126 46.4036 310.715C157.906 343.128 177.053 346.147 234.135 378.243C287.324 408.273 301.029 437.389 359.382 452.364C393.56 460.834 429.218 461.419 463.655 454.072C494.798 447.757 512.673 432.265 530.231 415.78C549.298 397.905 566.816 377.766 596.37 359.931C666.6 317.666 743.345 327.08 758.241 319.692C805.834 325.596 850.285 346.588 885.077 379.593C912.168 404.817 929.527 431.431 939.379 443.784C1030.74 558.701 971.912 654.749 1057.67 702.654C1096.44 724.342 1145.78 724.501 1181.85 722.237C1189.08 721.8 1195.63 721.204 1201.35 720.728C1277.74 714.332 1304.63 684.024 1380.42 668.175C1444.26 654.789 1474.57 671.711 1521.72 678.94C1539.29 681.547 1557.08 682.491 1574.83 681.76C1653.84 679.059 1692.57 654.987 1742.14 622.455C1782.98 595.642 1829.14 564.024 1901.04 535.424C1979.31 504.218 2062.49 487.099 2146.72 484.857" stroke="#B195FF" stroke-opacity="0.5" stroke-miterlimit="10"/>
<path d="M-148.001 252.361C-79.2008 269.124 -18.5437 285.013 26.5023 298.717C32.1827 300.465 37.7837 301.776 43.186 303.166C156.238 331.766 176.298 332.203 232.109 363.266C286.252 393.455 298.605 423.286 357.713 438.5C392.105 447.081 428.021 447.543 462.622 439.85C494.083 433.098 511.72 417.209 529.039 400.128C547.709 381.776 564.79 361.121 594.979 343.047C666.719 299.949 745.649 311.587 759.473 306.066C814.052 314.01 856.953 342.451 887.381 373.594C914.432 401.399 931.553 430.118 940.888 443.505C1029.27 570.1 966.708 670.517 1051.4 721.322C1090.21 744.559 1140.22 744.639 1176.13 742.176C1183.44 741.66 1190.07 741.064 1195.75 740.548C1273.17 733.437 1298.75 700.825 1375.58 683.387C1440.53 668.571 1470.4 685.612 1517.99 692.285C1535.74 694.691 1553.69 695.343 1571.57 694.231C1650.62 689.981 1690.26 663.288 1739.68 628.729C1780.48 600.209 1826.36 567.12 1898.57 538.242C1954.54 515.879 2035.89 491.608 2146.76 490.576" stroke="#B195FF" stroke-opacity="0.5" stroke-miterlimit="10"/>
<path d="M-150.305 250.099C-80.7899 266.464 -20.53 280.447 23.2846 291.847C29.0047 293.317 34.6057 294.429 40.008 295.819C154.371 320.328 175.583 318.222 230.123 348.173C284.663 378.124 296.222 408.988 356.124 424.44C390.697 433.167 426.852 433.521 461.589 425.472C493.368 418.243 510.846 402.036 527.927 384.4C546.16 365.611 563.121 344.399 593.629 326.087C666.918 282.393 748.231 296.018 760.704 292.403C816.594 302.016 859.535 333.794 889.725 367.478C916.697 397.588 933.42 428.611 942.437 442.95C1027.41 580.985 961.465 686.05 1045.2 739.675C1084.01 764.541 1134.66 764.502 1170.49 761.84C1177.84 761.284 1184.51 760.609 1190.35 760.053C1268.76 752.108 1293.03 717.471 1370.89 698.324C1436.99 682.078 1466.46 699.238 1514.49 705.355C1532.43 707.574 1550.54 707.946 1568.55 706.468C1647.64 700.628 1688.12 671.313 1737.42 634.769C1778.17 604.54 1823.77 569.982 1896.31 540.826C1952.36 518.303 2034.46 494.47 2147 496.178" stroke="#B195FF" stroke-opacity="0.5" stroke-miterlimit="10"/>
<path d="M-152.569 247.833C-82.3788 263.722 -22.516 275.877 20.0671 285.013C25.827 286.245 31.4279 287.198 36.8303 288.151C152.583 308.847 174.868 304.239 228.137 333.117C284.186 363.465 293.799 394.686 354.496 410.416C389.264 419.296 425.678 419.528 460.557 411.091C492.653 403.346 509.972 386.821 526.815 368.668C544.611 349.363 561.294 327.675 592.318 309.085C667.077 264.397 751.409 274.606 761.936 278.697C816.277 299.71 862.077 325.053 892.068 361.359C918.921 393.892 935.486 427.06 944.026 442.75C1025.26 591.907 956.182 701.977 1039 758.423C1077.81 784.878 1129.14 784.679 1164.81 781.859C1172.28 781.263 1178.95 780.548 1184.67 779.952C1264.11 771.452 1287 734.43 1365.93 713.616C1433.14 695.9 1462.17 713.219 1510.68 718.78C1528.79 720.804 1547.08 720.897 1565.22 719.058C1644.34 711.67 1685.7 679.693 1734.79 641.163C1775.55 609.385 1820.87 573.158 1893.69 543.724C1949.78 521.043 2032.72 497.726 2146.88 502.055" stroke="#B195FF" stroke-opacity="0.5" stroke-miterlimit="10"/>
<path d="M-154.873 245.571C-83.9674 261.181 -24.5417 271.191 16.8498 278.024C22.6493 278.977 28.2503 279.771 33.6924 280.526C150.796 297.289 174.193 290.258 226.151 317.984C283.352 348.57 291.297 380.348 352.907 396.237C387.877 405.231 424.541 405.34 459.564 396.555C491.898 388.253 509.098 371.49 525.663 352.86C543.062 332.999 559.467 310.874 590.968 292.085C667.276 246.603 753.395 263.803 763.167 264.955C822.752 272.065 864.58 316.276 894.254 355.204C914.324 382.361 931.473 411.559 945.417 442.315C1022.88 602.316 950.74 717.669 1032.81 776.935C1071.58 804.979 1123.61 804.74 1159.17 801.682C1166.67 801.046 1173.43 800.252 1179.03 799.616C1259.43 790.281 1281 751.076 1361.04 728.712C1429.32 709.486 1458 727.083 1506.94 732.009C1525.25 733.838 1543.7 733.638 1561.96 731.413C1641.17 722.476 1683.27 687.719 1732.29 647.321C1772.97 613.597 1818.01 576.139 1891.18 546.466C1947.35 523.626 2031.01 500.746 2146.88 507.737" stroke="#B195FF" stroke-opacity="0.5" stroke-miterlimit="10"/>
<path d="M-157.177 243.305C-85.6757 258.24 -26.6074 266.423 13.6321 271.11C146.784 286.602 171.174 275.083 224.164 302.888C282.16 333.355 289.032 366.086 351.278 382.333C386.444 391.477 423.365 391.477 458.531 382.333C525.186 364.06 527.013 312.342 589.617 275.083C667.434 228.767 755.898 249.144 764.399 251.249C877.689 279.055 930.521 403.425 947.125 441.916C1020.73 612.404 945.536 733.358 1026.57 795.444C1073.6 831.472 1141.29 823.249 1173.55 819.277C1254.94 809.347 1275.2 767.877 1356.27 743.805C1447.64 716.635 1467.78 755.722 1558.86 743.805C1704.17 724.619 1727.48 615.105 1888.56 549.166C1944.77 526.167 2029.22 503.763 2146.76 513.416" stroke="#B195FF" stroke-opacity="0.5" stroke-miterlimit="10"/>
<path d="M-155.032 248.272C-84.8013 263.207 -26.7262 272.105 13.5133 277.031C143.13 293.396 168.433 282.592 221.106 310.437C278.029 340.626 285.617 372.404 346.313 388.769C380.744 397.866 416.887 398.33 451.54 390.12C517.321 374.589 519.864 324.141 581.514 288.312C657.663 243.744 743.465 262.294 753.396 263.922C846.308 278.977 897.551 370.537 922.775 419.395C927.939 429.365 931.673 437.945 934.692 444.142C1010.17 605.534 938.902 721.761 1018.75 780.391C1066.41 815.307 1134.66 806.528 1168.26 802.754C1199.06 799.374 1228.91 790.066 1256.17 775.346C1283.98 761.404 1310 745.673 1352.78 735.227C1365.89 732.049 1377.56 730.301 1388.05 728.792C1451.61 719.616 1476.12 742.218 1552.7 728.593C1582.33 723.391 1610.86 713.197 1637.08 698.444C1708.22 658.722 1752.71 587.222 1862.86 535.027C1869.32 531.955 1876.08 528.962 1883.12 526.049C1939.84 502.454 2025.57 478.979 2144.9 487.995" stroke="#B195FF" stroke-opacity="0.5" stroke-miterlimit="10"/>
<path d="M-152.887 253.236C-84.0868 268.171 -26.8458 277.427 13.4334 282.908C139.435 300.108 165.533 290.098 218.047 318.023C273.937 347.576 282.2 379.076 341.189 395.163C374.912 404.235 410.306 405.188 444.469 397.944C509.257 384.955 512.713 336.136 573.37 301.498C647.891 258.956 731.428 272.66 742.312 276.592C828.273 307.377 884.044 376.891 910.023 422.929C915.307 432.304 918.961 440.526 921.94 446.325C999.162 598.819 932.109 710.041 1010.68 765.335C1058.75 799.099 1127.75 789.804 1162.7 786.189C1193.74 783.003 1223.99 774.469 1252.12 760.965C1280.36 748.373 1306.78 734.749 1349.04 726.685C1362.19 724.143 1373.95 723.189 1384.44 721.68C1447.79 712.504 1471.23 730.339 1546.27 713.338C1575.55 706.589 1603.6 695.276 1629.37 679.813C1697.85 640.09 1744.57 566.088 1856.94 512.145C1863.5 509.047 1870.33 505.949 1877.44 502.93C1934.64 478.739 2021.63 454.19 2142.79 462.532" stroke="#B195FF" stroke-opacity="0.5" stroke-miterlimit="10"/>
<path d="M-150.742 258.203C-83.3717 273.099 -27.0046 282.91 13.2348 288.987C135.661 306.902 162.633 297.806 214.909 325.731C269.727 354.807 278.704 385.711 336.263 401.719C369.262 410.712 403.875 412.071 437.477 405.691C501.034 395.165 505.603 347.975 565.267 314.688C638.159 274.012 719.035 284.419 731.309 289.186C799.566 316.543 857.593 364.502 897.312 426.387C902.714 435.165 906.329 443.03 909.229 448.472C988.119 591.75 925.356 698.404 1002.54 750.361C1051.16 783.013 1120.79 773.122 1157.1 769.745C1188.39 766.693 1219.03 758.911 1247.99 746.667C1276.75 735.425 1303.6 723.946 1345.23 718.186C1358.5 716.359 1370.29 716.16 1380.78 714.651C1444.06 705.435 1466.23 718.623 1539.67 698.166C1568.56 689.833 1596.12 677.42 1621.5 661.304C1687.32 621.304 1736.46 545.196 1850.83 489.346C1857.42 486.169 1864.33 483.004 1871.56 479.853C1929.24 455.106 2017.54 429.485 2140.49 437.191" stroke="#B195FF" stroke-opacity="0.5" stroke-miterlimit="10"/>
<path d="M-148.597 263.126C-82.6571 278.061 -27.1242 288.389 13.1947 294.904C132.046 313.533 159.932 305.351 211.81 333.315C265.516 361.955 275.367 392.183 331.178 408.152C363.485 417.191 397.372 419.089 430.486 413.713C493.129 405.768 498.492 360.088 557.202 328.111C628.466 288.985 705.727 304.556 720.305 301.895C804.32 318.856 857.151 389.284 884.64 429.959C890.161 438.102 893.697 445.57 896.795 450.694C977.433 584.876 918.96 686.684 994.712 735.224C1043.97 766.764 1114.12 756.317 1151.82 753.099C1183.38 750.195 1214.43 743.171 1244.17 732.206C1273.49 722.315 1300.66 713.02 1341.77 709.524C1355.12 708.372 1366.96 708.968 1377.52 707.459C1440.72 698.243 1461.62 706.624 1533.71 682.871C1564.26 672.781 1589.33 658.322 1614.27 642.592C1677.51 602.513 1728.83 523.863 1845.38 466.385C1852 463.127 1858.99 459.883 1866.36 456.653C1924.55 431.27 2014.13 404.577 2138.86 411.647" stroke="#B195FF" stroke-opacity="0.5" stroke-miterlimit="10"/>
<path d="M-146.492 268.093C-82.1005 282.989 -27.2826 293.833 13.235 300.586C128.432 319.891 157.033 312.82 208.911 340.626C261.504 368.908 271.951 398.421 326.372 414.31C357.927 423.345 391.019 425.699 423.535 421.222C484.986 415.343 491.422 371.688 549.139 341.063C618.734 304.161 693.175 318.341 709.382 314.488C790.894 329.901 843.686 395.442 872.008 433.417C877.649 440.964 881.145 448.074 884.323 452.841C966.669 577.847 912.605 674.848 986.848 720.092C1036.74 750.519 1107.45 739.476 1146.46 736.497C1186.18 733.478 1214.18 725.256 1240.32 717.788C1270.19 709.248 1298 696.855 1338.24 700.866C1350.13 702.149 1362.14 701.948 1373.99 700.271C1437.15 691.055 1456.69 694.829 1527.4 667.54C1556.99 656.139 1581.62 640.449 1606.85 623.845C1667.5 583.805 1721.01 502.732 1839.7 443.387C1846.4 440.05 1853.47 436.714 1860.91 433.377C1919.59 407.438 2010.43 379.673 2136.99 386.068" stroke="#B195FF" stroke-opacity="0.5" stroke-miterlimit="10"/>
<path d="M-144.347 273.097C-81.2269 287.993 -27.4021 299.354 12.9565 306.544C124.698 326.405 154.212 320.367 205.852 348.252C257.492 376.137 268.575 404.896 321.367 420.824C367.366 434.687 405.699 431.708 416.702 429.126C475.373 415.224 484.43 383.644 541.194 354.369C609.121 319.334 680.821 332.244 698.537 327.239C777.507 341.142 830.219 401.639 859.495 436.991C865.216 443.943 868.671 450.696 871.889 455.144C955.943 570.974 906.408 663.051 979.141 705.156C1029.75 734.471 1100.89 722.833 1141.29 720.052C1181.69 717.271 1210.01 709.804 1236.63 703.488C1267.01 696.298 1295.77 685.533 1334.86 692.405C1346.66 694.587 1358.73 694.869 1370.61 693.239C1433.69 684.024 1451.93 683.19 1521.2 652.405C1549.88 639.694 1573.96 622.732 1599.22 605.414C1657.33 565.691 1713.07 481.877 1833.86 420.666C1840.62 417.249 1847.77 413.833 1855.31 410.417C1914.5 383.883 2006.62 355.044 2134.96 360.764" stroke="#B195FF" stroke-opacity="0.5" stroke-miterlimit="10"/>
<path d="M-142.201 277.942C-80.5115 292.957 -27.5606 304.874 12.8378 312.342C121.004 332.679 151.392 327.794 202.794 355.679C253.242 383.087 265.159 411.29 316.402 427.179C361.13 441.042 398.39 439.334 409.552 436.871C467.071 424.08 477.082 395.48 532.932 367.556C599.19 334.348 667.991 346.066 687.376 339.75C763.843 352.104 816.357 407.278 846.626 440.366C851.093 445.75 855.283 451.358 859.178 457.169C944.861 563.823 899.974 650.934 970.959 689.941C1022.32 718.104 1093.9 705.83 1135.65 703.327C1175.81 700.865 1205.32 694.072 1232.46 688.948C1263.4 683.109 1293.11 674.251 1331.01 683.665C1342.74 686.772 1354.97 687.555 1367 685.969C1430.04 676.714 1446.92 671.351 1514.81 636.991C1542.61 622.969 1566.05 604.816 1591.51 586.624C1647.13 546.901 1705.04 460.704 1827.94 397.625C1834.75 394.13 1841.98 390.634 1849.63 387.139C1909.22 360.008 2002.69 330.098 2132.86 335.182" stroke="#B195FF" stroke-opacity="0.5" stroke-miterlimit="10"/>
<path d="M-140.057 282.828C-79.7968 297.763 -27.7199 310.077 12.758 318.181C117.309 339.074 148.571 335.301 199.933 363.186C249.309 390.157 261.941 417.645 311.595 433.454C355.29 447.318 391.279 446.881 402.759 444.537C459.166 432.978 470.288 407.238 525.027 380.624C589.617 349.283 655.756 359.77 676.571 352.381C750.495 363.186 802.731 413.434 834.152 443.743C838.661 448.681 842.891 453.866 846.824 459.274C934.214 556.713 893.975 638.779 963.212 674.767C1015.33 701.818 1087.31 688.987 1130.41 686.684C1170.92 684.459 1201.11 678.382 1228.72 674.449C1261.54 669.936 1294.83 670.11 1327.59 674.966C1341.57 676.753 1353.33 680.249 1363.7 678.938C1426.66 669.643 1442.19 659.831 1508.69 621.857C1535.46 606.564 1558.46 587.1 1584.16 568.113C1637.35 528.708 1697.33 439.77 1822.5 374.824C1829.33 371.289 1836.68 367.674 1844.47 364.06C1904.61 336.254 1999.39 305.35 2131.23 309.799" stroke="#B195FF" stroke-opacity="0.5" stroke-miterlimit="10"/>
<path d="M-137.713 289.66C-78.8829 304.556 -27.6401 317.466 12.8378 325.926C113.655 347.257 145.791 344.596 196.676 372.6C245.019 399.134 258.326 425.947 306.431 441.717C348.697 455.58 383.732 456.374 395.53 454.189C450.904 443.981 462.861 420.942 516.765 395.679C579.647 366.205 643.045 375.46 665.369 366.92C736.871 376.175 788.511 421.18 821.243 449.224C825.793 453.71 830.077 458.458 834.073 463.445C922.854 551.668 887.66 628.649 955.07 661.659C1008.02 687.597 1080.32 674.211 1124.81 672.106C1165.6 670.159 1196.51 664.797 1224.59 662.056C1256.61 658.918 1286.44 661.579 1323.9 668.372C1338.08 670.954 1349.8 675.124 1360.13 673.615C1423.01 664.32 1437.23 650.06 1502.33 608.391C1528.15 591.827 1550.6 571.132 1576.5 551.271C1627.3 512.263 1689.35 420.584 1816.46 353.732C1823.38 350.077 1830.77 346.423 1838.67 342.689C1899.29 314.407 1995.22 282.351 2129.01 286.125" stroke="#B195FF" stroke-opacity="0.5" stroke-miterlimit="10"/>
<path d="M-135.766 306.86C-78.3664 321.756 -27.9975 335.063 12.5201 344.08C109.961 365.808 142.971 364.458 193.618 392.263C240.888 418.361 254.91 444.538 301.466 460.228C342.46 474.091 376.384 476.117 388.539 474.091C442.88 465.312 455.711 444.895 508.661 420.982C569.835 393.177 630.492 401.439 654.366 391.667C723.246 399.612 770.556 445.531 808.571 464.875C813.616 470.278 817.985 474.647 821.481 477.745C911.771 556.713 881.622 628.69 947.125 658.72C1000.95 683.467 1073.56 669.524 1119.4 667.657C1160.48 665.989 1192.1 661.341 1220.66 659.713C1253.23 657.925 1283.62 663.208 1320.16 671.828C1334.54 675.205 1346.22 680.051 1356.51 678.501C1419.35 669.206 1432.22 650.696 1495.9 605.174C1520.81 587.418 1542.69 565.452 1568.79 544.677C1617.25 506.107 1681.33 411.608 1810.55 342.888C1817.51 339.207 1824.99 335.447 1832.99 331.607C1894.12 302.928 1991.44 269.8 2126.9 273.096" stroke="#B195FF" stroke-opacity="0.5" stroke-miterlimit="10"/>
<path d="M-133.74 322.353C-77.6512 337.249 -28.1562 350.993 12.401 360.486C106.306 382.572 140.349 382.572 190.559 410.536C236.757 436.157 251.494 461.699 296.461 477.349C336.184 491.172 368.995 494.271 381.548 492.563C434.896 485.294 448.561 467.458 500.717 444.896C560.302 419.077 618.099 425.949 643.522 415.025C709.859 421.222 756.693 462.97 796.018 479.057C800.14 483.168 804.504 487.028 809.087 490.616C900.768 560.408 875.783 626.983 939.339 654.351C994.078 677.907 1066.93 663.408 1114.12 661.819C1155.51 660.389 1187.85 656.457 1216.84 656.099C1249.97 655.662 1280.96 663.646 1316.71 674.014C1331.25 678.224 1342.93 683.706 1353.21 681.958C1415.94 672.624 1427.54 649.704 1489.78 600.488C1513.62 581.54 1535.11 558.343 1561.28 536.654C1607.4 498.601 1673.46 401.202 1804.79 330.576C1811.78 326.603 1819.36 322.949 1827.47 319.056C1889.08 289.542 1987.55 255.501 2124.95 257.844" stroke="#B195FF" stroke-opacity="0.5" stroke-miterlimit="10"/>
<path d="M-131.516 337.844C-76.8969 352.74 -28.2361 366.921 12.2815 376.971C102.651 399.295 137.33 400.605 187.5 428.61C232.625 453.794 248.078 478.699 291.495 494.27C330.026 508.094 361.646 509.246 374.556 510.874C426.792 517.548 441.41 489.822 492.454 468.65C550.251 444.816 605.387 450.338 632.359 438.222C696.194 442.87 742.471 480.288 783.307 493.119C787.468 496.826 791.874 500.25 796.495 503.367C889.526 563.943 869.784 625.155 931.553 649.823C987.165 672.147 1060.3 657.171 1108.88 655.781C1150.59 654.629 1183.6 651.451 1213.07 652.246C1246.76 653.159 1278.26 663.924 1313.25 676.079C1327.99 681.124 1339.59 687.201 1349.88 685.692C1412.56 676.317 1422.89 649.108 1483.62 596.079C1506.7 575.939 1527.52 551.47 1553.97 528.869C1597.67 491.371 1665.83 391.032 1799.26 318.341C1806.34 314.527 1813.98 310.555 1822.18 306.424C1884.27 276.315 1984.06 241.041 2123.25 242.868" stroke="#B195FF" stroke-opacity="0.5" stroke-miterlimit="10"/>
<path d="M-129.371 353.377C-76.1819 368.432 -28.4347 382.851 12.1623 393.417C98.997 415.98 134.509 418.681 184.441 446.725C228.494 471.432 244.662 495.543 286.49 511.432C323.79 525.256 354.337 527.321 367.525 529.426C418.45 537.371 434.22 512.425 484.351 492.604C540.44 470.399 592.874 474.927 621.356 461.621C682.648 464.759 728.608 497.768 770.476 507.381C774.678 510.694 779.127 513.682 783.783 516.318C878.086 567.719 863.825 623.568 923.291 645.534C979.976 666.547 1053.23 651.096 1103.12 649.983C1145.14 649.07 1178.87 646.647 1208.82 648.633C1243.06 650.897 1275.08 664.522 1309.32 678.146C1324.22 684.105 1335.82 690.778 1346.06 689.229C1408.67 679.854 1417.8 648.394 1477.15 591.512C1499.32 570.181 1519.57 544.481 1546.19 520.926C1587.82 484.024 1657.73 380.706 1793.27 306.426C1800.39 302.48 1808.11 298.508 1816.42 294.509C1879.03 263.844 1980.04 227.498 2121.06 228.689" stroke="#B195FF" stroke-opacity="0.5" stroke-miterlimit="10"/>
<path d="M-127.226 368.867C-75.5856 383.723 -28.5931 398.738 12.0436 409.86C95.4621 432.581 131.69 436.792 181.383 464.796C224.403 489.066 241.246 512.74 281.525 528.351C317.554 542.175 347.028 545.154 360.534 547.736C410.109 557.15 427.07 534.747 476.248 516.315C530.628 495.938 580.322 499.275 610.353 484.776C669.143 486.365 714.427 515.044 757.805 521.4C762.057 524.305 766.549 526.843 771.231 528.987C866.567 571.37 857.986 621.42 915.347 640.964C972.707 660.507 1046.43 644.936 1097.72 643.943C1140.02 643.268 1174.46 641.56 1204.97 644.737C1239.73 648.352 1272.26 664.599 1305.78 680.09C1320.84 686.962 1332.44 694.152 1342.65 692.642C1405.17 683.228 1413.16 647.597 1470.79 586.783C1492.13 564.3 1511.83 537.368 1538.6 512.82C1578.01 476.633 1649.83 370.257 1787.43 293.911C1794.58 289.939 1802.4 285.966 1810.82 281.637C1873.82 250.216 1976.15 212.798 2118.96 213.513" stroke="#B195FF" stroke-opacity="0.5" stroke-miterlimit="10"/>
<path d="M-125.081 384.321C-74.7518 399.177 -28.7127 414.589 11.9637 426.228C91.7277 449.108 128.869 454.788 178.324 482.832C220.272 506.666 237.909 529.665 276.519 545.077C311.357 558.9 339.759 562.793 353.543 565.852C401.806 576.537 419.88 556.914 468.183 539.834C520.817 521.244 567.769 523.468 599.27 507.778C655.518 507.778 700.285 532.128 745.014 535.226C749.35 537.721 753.896 539.835 758.599 541.542C855.364 574.988 852.187 619.159 907.402 636.319C966.152 654.551 1039.64 638.384 1092.31 637.828C1134.9 637.352 1170.05 636.398 1200.96 640.768C1236.27 645.733 1269.24 665.038 1302.09 681.92C1317.3 689.864 1328.86 697.451 1339.07 695.902C1401.56 686.528 1408.39 646.686 1464.44 581.939C1484.9 558.304 1504.16 530.3 1530.93 504.6C1568.2 469.128 1641.84 359.693 1781.55 281.441C1788.78 277.389 1796.66 273.205 1805.18 268.888C1868.74 237.111 1972.34 198.58 2116.97 198.461" stroke="#B195FF" stroke-opacity="0.5" stroke-miterlimit="10"/>
<path d="M-122.936 399.89C-74.0368 414.746 -28.8716 430.516 11.8445 442.751C88.1129 465.71 126.088 472.939 175.265 501.063C216.14 524.38 234.413 546.783 271.554 562.116C295.868 571.65 320.961 579.066 346.551 584.281C393.504 596.197 412.69 579.355 460.08 563.665C510.965 546.862 555.415 547.776 588.346 531.053C642.051 529.583 686.343 549.524 732.421 549.405C736.827 551.479 741.414 553.141 746.126 554.37C843.765 578.839 846.466 617.012 899.457 631.828C959.32 648.551 1032.89 633.099 1086.87 631.828C1129.77 630.835 1165.6 631.431 1197.02 636.953C1232.77 643.268 1266.3 665.513 1298.48 683.904C1313.81 692.643 1325.41 700.905 1335.58 699.356C1397.98 689.942 1403.74 645.969 1458.16 577.25C1477.75 552.503 1496.42 523.188 1523.39 496.534C1558.46 461.817 1633.94 349.284 1775.75 269.125C1783.02 265.152 1790.96 260.743 1799.58 256.334C1863.66 223.881 1968.52 184.318 2114.94 183.563" stroke="#B195FF" stroke-opacity="0.5" stroke-miterlimit="10"/>
<path d="M-120.791 415.421C-73.1236 430.277 -28.9912 446.364 11.725 459.115C84.4977 482.074 123.267 490.893 172.246 519.056C211.969 541.896 230.996 563.704 266.549 578.957C290.244 588.747 314.652 596.715 339.56 602.79C385.281 615.859 405.5 601.837 451.976 587.616C501.113 572.522 542.704 572.482 577.342 554.448C628.545 551.39 672.32 567.001 719.71 563.624C724.196 565.262 728.823 566.485 733.533 567.279C832.285 582.969 840.786 614.945 891.512 627.498C952.527 642.592 1026.09 626.941 1081.47 625.988C1124.69 625.273 1161.19 626.584 1193.09 633.297C1229.48 640.963 1263.28 666.147 1294.9 686.048C1310.27 695.74 1321.95 704.519 1332.08 702.97C1394.45 693.516 1399.13 645.412 1451.85 572.721C1470.63 546.822 1488.79 516.355 1515.8 488.668C1548.85 454.746 1626.07 339.074 1770.03 256.969C1777.34 252.798 1785.4 248.428 1794.14 243.9C1858.73 210.891 1964.95 170.255 2113.08 168.825" stroke="#B195FF" stroke-opacity="0.5" stroke-miterlimit="10"/>
<path d="M-118.686 430.953C-72.607 445.769 -29.1102 462.214 11.6059 475.68C80.7638 498.679 120.487 509.087 169.187 537.289C207.917 559.693 227.58 580.984 261.583 596.039C284.659 605.902 308.358 614.235 332.529 620.984C377.058 635.165 398.31 624.043 443.754 611.212C491.183 597.906 530.032 596.754 566.22 577.488C614.881 572.92 658.139 584.162 706.919 577.488C711.483 578.704 716.151 579.489 720.862 579.832C820.726 586.823 834.907 612.325 883.448 622.772C945.615 636.198 1019.18 620.388 1075.95 619.832C1119.44 619.356 1156.66 621.381 1189.04 629.286C1225.98 638.303 1260.14 666.426 1291.17 687.837C1306.62 698.522 1318.34 707.698 1328.47 706.228C1390.75 696.774 1394.49 644.5 1445.45 567.836C1463.41 540.825 1481.2 509.246 1508.09 480.447C1539.24 447.358 1618.05 328.708 1764.15 244.497C1771.5 240.247 1779.64 235.798 1788.5 231.19C1853.57 197.625 1960.98 155.877 2111.01 153.93" stroke="#B195FF" stroke-opacity="0.5" stroke-miterlimit="10"/>
<path d="M-116.541 446.485C-71.8919 461.341 -29.1498 478.024 11.4869 492.205C77.3478 515.125 117.667 527.24 166.129 555.443C203.826 577.369 224.164 597.985 256.578 613.04C279.043 623.127 302.067 631.92 325.538 639.376C368.876 654.669 391.081 646.406 435.769 635.006C481.451 623.407 517.599 621.183 555.336 600.766C601.494 594.648 644.236 601.52 694.367 591.669C699.029 592.292 703.725 592.623 708.428 592.662C809.325 597.151 829.346 609.941 875.623 618.363C938.942 629.882 1012.55 613.358 1070.62 613.914C1114.32 614.351 1152.37 616.456 1185.22 625.552C1222.72 635.92 1257.16 667.022 1287.67 689.902C1303.2 701.581 1315 711.273 1325.09 709.763C1387.34 700.309 1390.12 643.944 1439.25 563.308C1456.41 535.144 1473.69 502.453 1500.67 472.463C1529.66 440.208 1610.34 318.221 1758.35 232.263C1765.79 227.92 1773.99 223.405 1782.94 218.717C1848.48 184.477 1957.2 141.696 2109.02 138.995" stroke="#B195FF" stroke-opacity="0.5" stroke-miterlimit="10"/>
<path d="M-114.395 461.977C-71.1765 476.794 -29.2687 493.755 11.368 508.611C73.8127 531.412 114.847 545.235 163.071 573.517C199.695 594.967 220.709 614.987 251.613 629.963C280.214 643.865 303.253 651.81 318.547 657.768C360.733 674.094 383.891 668.731 427.666 658.841C467.263 649.749 506.233 638.112 544.333 624.004C586.121 609.307 629.737 594.689 681.655 605.772C686.369 606.428 691.157 606.32 695.837 605.454C798.084 595.364 823.626 607.44 867.679 613.915C932.189 623.369 1005.76 607.083 1065.22 607.956C1109.35 608.592 1147.96 611.492 1181.29 621.74C1219.31 633.657 1254.07 667.579 1284.06 691.929C1299.63 704.601 1311.54 714.769 1321.63 713.22C1383.76 703.727 1385.67 643.23 1432.86 558.621C1449.22 529.306 1466.11 495.582 1492.96 464.44C1519.81 433.298 1602.48 308.093 1752.43 219.91C1759.9 215.58 1768.32 210.933 1777.26 206.126C1843.32 171.33 1953.27 127.476 2106.96 124.1" stroke="#B195FF" stroke-opacity="0.5" stroke-miterlimit="10"/>
<path d="M-112.251 477.506C-70.4619 492.322 -29.3485 509.284 11.2882 525.172C70.277 547.854 112.066 563.425 160.011 591.747C195.762 612.72 217.292 632.144 246.608 647.04C273.977 660.983 296.222 669.682 311.555 676.157C352.629 693.515 376.661 691.013 419.562 682.631C461.708 674.409 489.673 663.922 533.329 647.279C572.655 632.264 614.523 629.364 668.983 619.87C673.989 618.996 678.795 619.076 683.284 618.281C786.802 599.691 817.905 604.855 859.734 609.463C925.396 616.653 999.003 600.843 1059.78 601.995C1104.23 602.869 1143.56 606.524 1177.36 617.884C1215.93 630.992 1250.93 668.013 1280.44 693.873C1296.05 707.537 1308.25 718.183 1318.14 716.634C1380.19 707.14 1381.26 642.472 1426.66 553.772C1442.27 523.305 1458.8 488.628 1485.49 456.215C1510.64 425.708 1594.73 297.524 1746.75 207.434C1754.3 203.025 1762.64 198.298 1771.82 193.373C1838.35 158.02 1949.62 113.094 2105.05 109.042" stroke="#B195FF" stroke-opacity="0.5" stroke-miterlimit="10"/>
<path d="M-109.907 492.999C-69.5482 507.816 -29.1896 525.095 11.3677 541.5C66.98 564.023 109.444 581.222 157.151 609.743C191.671 630.24 214.075 649.068 241.841 663.924C267.939 677.827 289.231 687.241 304.762 694.391C344.764 712.782 369.67 713.14 411.697 706.308C452.056 699.714 477.598 689.028 522.524 670.558C559.507 655.225 600.62 648.035 656.471 634.013C661.436 632.782 666.362 632.265 670.93 631.113C775.799 604.063 812.503 609.544 851.988 605.016C919.25 597.629 986.924 594.657 1054.58 596.118C1099.34 597.191 1139.34 601.6 1173.74 614.231C1212.87 628.69 1248.07 668.691 1277.02 696.02C1292.64 710.677 1304.83 721.76 1314.84 720.25C1376.85 710.717 1377.05 641.918 1420.58 549.445C1435.44 517.865 1451.69 482.235 1478.14 448.51C1501.38 418.917 1587.02 287.437 1741.15 195.48C1748.74 190.991 1757.04 186.185 1766.45 181.18C1833.51 145.191 1946 99.1932 2103.26 94.5457" stroke="#B195FF" stroke-opacity="0.5" stroke-miterlimit="10"/>
<path d="M-107.96 504.162C-69.0318 518.978 -29.4279 536.376 11.2088 553.616C63.4844 575.9 106.544 595.086 154.212 623.487C187.698 643.348 210.778 661.779 236.995 676.516C261.822 690.459 282.2 700.588 297.851 708.294C336.898 727.679 362.56 730.896 403.713 725.613C442.323 720.648 465.561 709.963 511.64 689.148C546.358 673.458 586.876 662.137 643.918 643.468C648.884 641.839 653.809 640.766 658.496 639.217C764.795 603.785 806.942 600.448 844.162 595.92C912.202 587.548 980.754 584.056 1049.29 585.473C1094.34 586.784 1135.05 591.948 1169.77 605.771C1209.5 621.66 1244.85 664.52 1273.53 693.16C1289.1 708.811 1301.34 720.409 1311.46 718.86C1373.39 709.287 1372.84 636.357 1414.39 539.872C1428.49 507.101 1444.58 470.596 1470.67 435.561C1492.09 406.842 1579.24 272.104 1735.47 178.241C1743.1 173.673 1751.64 168.787 1761.01 163.702C1828.54 127.118 1942.35 80.0474 2101.4 74.7247" stroke="#B195FF" stroke-opacity="0.5" stroke-miterlimit="10"/>
<path d="M-105.934 510.158C-68.4355 524.974 -29.5069 542.373 10.8121 560.526C59.7509 582.572 103.605 603.505 150.717 632.026C183.171 651.529 206.885 669.285 231.553 683.903C255.149 697.885 274.613 708.65 290.423 717.15C328.517 737.528 354.933 743.566 395.173 739.872C432.036 736.495 453.129 726.088 500.201 702.85C532.694 686.962 572.735 671.39 630.77 648.034C635.776 646.048 640.741 644.419 645.468 642.473C753.356 598.58 800.626 586.306 835.781 581.896C904.224 573.356 978.546 567.874 1043.41 569.98C1088.78 571.449 1130.17 577.408 1165.4 592.423C1205.64 609.583 1241.16 655.462 1269.48 685.81C1285.05 702.493 1297.56 714.489 1307.53 712.94C1369.42 703.407 1368.07 626.266 1407.67 525.848C1421.02 491.926 1437.03 454.587 1462.65 418.161C1482.27 390.356 1570.9 252.361 1729.23 156.591C1736.94 151.983 1745.52 146.978 1755.01 141.774C1823.06 104.634 1938.1 56.4905 2098.98 50.413" stroke="#B195FF" stroke-opacity="0.5" stroke-miterlimit="10"/>
<path d="M-103.71 515.881C-67.6017 530.657 -29.3086 548.056 10.8117 567.202C57.7151 589.179 103.433 613.602 147.777 640.37C179.198 659.437 203.389 676.636 226.707 691.095C248.991 705.197 267.582 716.557 283.55 725.733C320.731 747.143 347.862 755.962 387.188 753.896C422.343 752.069 441.41 742.178 489.316 716.319C519.744 699.914 559.348 680.37 618.218 652.366C623.223 649.983 628.228 647.798 633.034 645.494C742.471 593.14 794.509 569.823 827.955 567.639C897.828 563.19 971.872 551.75 1038.13 554.252C1083.81 555.881 1125.88 562.713 1161.59 578.88C1202.39 597.391 1238.02 646.408 1265.98 678.186C1281.47 695.862 1294.19 708.335 1304.16 706.825C1365.97 697.213 1363.74 615.901 1401.48 511.551C1414.8 472.462 1432.84 435.14 1455.18 400.408C1473.06 373.437 1563.11 232.224 1723.51 134.547C1731.26 129.86 1739.92 124.776 1749.53 119.493C1818.05 81.7565 1934.4 32.5407 2097.07 25.9071" stroke="#B195FF" stroke-opacity="0.5" stroke-miterlimit="10"/>
<path d="M-101.565 521.361C-16.4682 557.643 65.8478 600.128 144.718 648.472C271.594 726.288 306.272 768.314 379.085 767.639C432.115 767.123 444.628 744.56 605.506 656.417C726.503 590.12 787.001 557.111 820.011 553.139C938.624 539.276 1068.28 522.116 1157.66 565.056C1222.09 595.999 1272.85 704.401 1300.66 700.111C1383.09 687.321 1350.55 539.236 1447.64 382.333C1463.8 356.196 1555.25 211.806 1717.75 112.222C1780.83 73.5725 1907.47 9.30194 2095.12 1" stroke="#B195FF" stroke-opacity="0.5" stroke-miterlimit="10"/>
</svg>
